<?xml version="1.0" encoding="UTF-8"?>
<svg width="355px" height="129px" viewBox="0 0 355 129" version="1.1" xmlns="http://www.w3.org/2000/svg" xmlns:xlink="http://www.w3.org/1999/xlink">
    <!-- Generator: Sketch 47 (45396) - http://www.bohemiancoding.com/sketch -->
    <title>Page 1</title>
    <desc>Created with Sketch.</desc>
    <defs>
        <polygon id="path-1" points="354.701662 128.857789 354.701662 0 0 0 0 128.857789 354.701662 128.857789"></polygon>
    </defs>
    <g id="Page-1" stroke="none" stroke-width="1" fill="none" fill-rule="evenodd">
        <g id="iPhone-8-Copy" transform="translate(-10.000000, -10.000000)">
            <g id="Page-1" transform="translate(10.000000, 10.000000)">
                <mask id="mask-2" fill="white">
                    <use xlink:href="#path-1"></use>
                </mask>
                <g id="Clip-2"></g>
                <path d="M36.0581482,74.7005819 C35.0257899,74.1674536 33.9287166,73.6793176 32.7527527,73.247268 C29.2914249,71.9751561 26.0008214,71.4931834 22.8809423,71.8013501 C19.7604468,72.1095167 16.8988113,73.034633 14.2960358,74.5754662 C11.8892542,76.0004288 9.69942202,77.8531267 7.84980579,80.2266263 C3.19895472,86.1939653 0.656579863,92.8965899 0.070446896,100.095363 C-0.193343756,103.346521 0.296641217,106.410314 1.28154183,109.2701 C2.26829144,112.130503 3.87137435,114.696299 6.09202322,116.966871 C8.3126721,119.238059 11.2883293,120.797382 14.7422611,122.328354 C30.6769422,129.388452 46.1647816,121.458091 51.1244157,107.962857 C56.0359757,94.5982861 49.2945221,79.8038216 36.0581482,74.7005819 L36.0581482,74.7005819 Z M233.940582,124.749927 C238.664777,124.749927 242.465088,123.719418 245.339667,121.657783 C248.213013,119.597381 249.650302,116.910784 249.650302,113.599842 C249.650302,110.290132 248.431195,107.618943 245.993596,105.587509 C243.555998,103.556074 239.372944,101.75823 233.444434,100.192743 C226.702364,98.5083046 221.729787,96.3560687 218.52547,93.7378848 C215.319921,91.119701 213.717454,87.5985888 213.717454,83.1745484 C213.717454,78.750508 215.575699,75.1172232 219.292189,72.2734614 C223.008679,69.4290832 227.846895,68.0072023 233.805605,68.0072023 C239.764316,68.0072023 244.6315,69.6774655 248.409007,73.017992 C252.185281,76.3579021 254.013325,80.5113722 253.89314,85.4765533 L253.803156,85.7027476 L249.334123,85.7027476 C249.334123,81.6706952 247.919022,78.4053614 245.090668,75.9067462 C242.261698,73.4093636 238.492204,72.160056 233.783417,72.160056 C229.072782,72.160056 225.363688,73.191798 222.65552,75.2528165 C219.946735,77.3138351 218.592651,79.9098309 218.592651,83.0389551 C218.592651,86.1693119 219.840725,88.7203154 222.339341,90.690733 C224.83734,92.6623832 229.223167,94.4374231 235.498673,96.0177017 C241.77233,97.5973639 246.519945,99.7865798 249.740286,102.585349 C252.960628,105.384119 254.57049,109.063629 254.57049,113.622646 C254.57049,118.18228 252.666637,121.861173 248.860162,124.659943 C245.053072,127.458712 240.095287,128.857789 233.986191,128.857789 C227.846895,128.857789 222.685104,127.398928 218.502666,124.479357 C216.486023,123.034672 214.898349,121.191835 213.740258,118.949615 C212.580936,116.708011 212.031783,114.202616 212.092183,111.43343 L212.182784,111.162244 L216.651817,111.162244 C216.651817,114.141599 217.448736,116.685206 219.044423,118.791217 C222.083562,122.763485 227.04936,124.749927 233.940582,124.749927 L233.940582,124.749927 Z M185.684767,127.909868 L180.854563,127.909868 L180.854563,106.016477 L159.45732,68.7745372 L165.099851,68.7745372 L183.292161,101.637429 L201.619448,68.7745372 L207.261979,68.7745372 L185.684767,106.287047 L185.684767,127.909868 Z M148.262242,103.2627 L148.262242,93.5572992 C148.262242,87.0568319 146.628342,81.8808648 143.364241,78.0281654 C140.098291,74.1766986 135.636654,72.2500407 129.979331,72.2500407 C124.321391,72.2500407 119.920155,74.1693026 116.776239,78.0059774 C113.630473,81.8432685 112.058824,87.0272479 112.058824,93.5572992 L112.058824,103.2627 C112.058824,109.823568 113.637869,115.022339 116.79781,118.859014 C119.957751,122.696305 124.374396,124.614334 130.047744,124.614334 C135.719859,124.614334 140.1741,122.696305 143.409849,118.859014 C146.644367,115.022339 148.262242,109.823568 148.262242,103.2627 L148.262242,103.2627 Z M153.091829,93.6472838 L153.091829,103.2627 C153.091829,110.967482 150.999378,117.159783 146.817556,121.838369 C142.634502,126.518188 137.044359,128.857789 130.047744,128.857789 C123.050512,128.857789 117.489953,126.518188 113.367299,121.838369 C109.244029,117.159783 107.183011,110.967482 107.183011,103.2627 L107.183011,93.6472838 C107.183011,85.9437339 109.236633,79.7440373 113.345111,75.0488102 C117.452356,70.3541995 123.005519,68.0072023 130.002135,68.0072023 C136.999367,68.0072023 142.596906,70.3541995 146.794752,75.0488102 C150.993214,79.7440373 153.091829,85.9437339 153.091829,93.6472838 L153.091829,93.6472838 Z M101.359277,68.7745372 L101.359277,72.8823987 L81.000556,72.8823987 L81.000556,127.909868 L76.1253596,127.909868 L76.1253596,72.8823987 L55.8116304,72.8823987 L55.8116304,68.7745372 L101.359277,68.7745372 Z M319.671928,4.82995753 L319.671928,31.1923817 L335.200445,31.1923817 C339.955457,31.1923817 343.589358,29.9892991 346.102765,27.5812849 C348.61494,25.1745034 349.871643,21.9911419 349.871643,18.0342821 C349.871643,14.0774223 348.61494,10.8866649 346.102765,8.46385865 C343.589358,6.04228512 339.955457,4.82995753 335.200445,4.82995753 L319.671928,4.82995753 Z M319.671928,59.8574271 L314.841724,59.8574271 L314.841724,0.722096092 L335.200445,0.722096092 C341.369325,0.722096092 346.162549,2.27217434 349.578268,5.3717145 C352.993988,8.47187099 354.701847,12.6845091 354.701847,18.0108614 C354.701847,23.3378301 352.993988,27.5517009 349.578268,30.6506247 C346.162549,33.7513976 341.369325,35.3002431 335.200445,35.3002431 L319.671928,35.2552508 L319.671928,59.8574271 Z M297.236779,35.2552508 L297.236779,25.5498504 C297.236779,19.0493831 295.603496,13.8740323 292.338779,10.0213329 C289.073445,6.16986612 284.611808,4.24320823 278.954485,4.24320823 C273.295929,4.24320823 268.894693,6.16185378 265.750777,9.99852857 C262.605011,13.8358197 261.032745,19.0197991 261.032745,25.5498504 L261.032745,35.2552508 C261.032745,41.8167351 262.613024,47.0148901 265.772965,50.8521813 C268.932905,54.688856 273.348933,56.6075016 279.022281,56.6075016 C284.694397,56.6075016 289.148638,54.688856 292.384387,50.8521813 C295.618905,47.0148901 297.236779,41.8167351 297.236779,35.2552508 L297.236779,35.2552508 Z M302.066983,25.639835 L302.066983,35.2552508 C302.066983,42.9600334 299.974532,49.152334 295.792094,53.8315364 C291.60904,58.5107388 286.019513,60.85034 279.022281,60.85034 C272.02505,60.85034 266.465107,58.5107388 262.342453,53.8315364 C258.218567,49.152334 256.157549,42.9600334 256.157549,35.2552508 L256.157549,25.639835 C256.157549,17.9362851 258.211788,11.7365885 262.319649,7.04197773 C266.42751,2.34675067 271.980057,-0.000246533319 278.977289,-0.000246533319 C285.973905,-0.000246533319 291.571444,2.34675067 295.769906,7.04197773 C299.967752,11.7365885 302.066983,17.9362851 302.066983,25.639835 L302.066983,25.639835 Z M250.334432,0.767088423 L250.334432,4.87494986 L229.97571,4.87494986 L229.97571,59.9024194 L225.100514,59.9024194 L225.100514,4.87494986 L204.786785,4.87494986 L204.786785,0.767088423 L250.334432,0.767088423 Z M162.398462,32.0503177 L162.398462,59.9024194 L157.568258,59.9024194 L157.568258,0.767088423 L162.398462,0.767088423 L162.398462,27.9874485 L170.479208,27.9874485 L193.772292,0.767088423 L199.234238,0.767088423 L199.324223,0.94767408 L174.85764,29.8382974 L201.085087,59.6768414 L200.994486,59.9024194 L195.216361,59.9024194 L170.5242,32.0503177 L162.398462,32.0503177 Z M125.698279,56.7424786 C130.422474,56.7424786 134.222169,55.7119693 137.097364,53.6509508 C139.97071,51.5899322 141.407999,48.9039517 141.407999,45.5923929 C141.407999,42.2826831 140.188892,39.6114946 137.751293,37.58006 C135.313695,35.5492418 131.130641,33.7513976 125.202131,32.185911 C118.460061,30.5008557 113.4881,28.3486199 110.283167,25.730436 C107.077618,23.1122522 105.475151,19.59114 105.475151,15.1670996 C105.475151,10.7430592 107.333396,7.1097744 111.050502,4.26601256 C114.766376,1.42163439 119.604592,-0.000246533319 125.563302,-0.000246533319 C131.522013,-0.000246533319 136.389197,1.67001671 140.166704,5.01054318 C143.942978,8.35106966 145.771022,12.5039234 145.650837,17.4697208 L145.560853,17.6952988 L141.09182,17.6952988 C141.09182,13.6632464 139.676719,10.3979125 136.848365,7.89929735 C134.019395,5.40191483 130.249901,4.15260723 125.541114,4.15260723 C120.830479,4.15260723 117.121385,5.18434917 114.413217,7.24536772 C111.704432,9.30638627 110.350348,11.9023821 110.350348,15.0315063 C110.350348,18.1624794 111.598423,20.7128666 114.097038,22.6839005 C116.595037,24.6549344 120.981481,26.4305906 127.25637,28.0102529 C133.530643,29.5905315 138.277642,31.779131 141.497984,34.5779005 C144.718325,37.37667 146.328188,41.0561798 146.328188,45.6158136 C146.328188,50.174831 144.424334,53.8537244 140.61786,56.6524939 C136.810769,59.4512634 131.852984,60.85034 125.743888,60.85034 C119.604592,60.85034 114.442801,59.3914791 110.260363,56.4719083 C108.24372,55.027223 106.656046,53.1843865 105.497956,50.9421659 C104.338633,48.7005617 103.78948,46.1951669 103.84988,43.4259813 L103.940481,43.1547947 L108.409514,43.1547947 C108.409514,46.1341499 109.206433,48.6777574 110.801504,50.7837683 C113.841259,54.7566527 118.807057,56.7424786 125.698279,56.7424786 L125.698279,56.7424786 Z M92.925989,27.1295126 L92.925989,31.237374 L64.4415293,31.237374 L64.4415293,55.794558 L97.0788427,55.794558 L97.0788427,59.9024194 L59.6113252,59.9024194 L59.6113252,0.767088423 L96.8532648,0.767088423 L96.8532648,4.87494986 L64.4415293,4.87494986 L64.4415293,27.1295126 L92.925989,27.1295126 Z M22.1888,4.87494986 L9.82022334,4.87494986 L9.82022334,55.794558 L22.1888,55.794558 C28.0575256,55.794558 32.871705,53.7631234 36.6344198,49.7002543 C40.3959019,45.6380016 42.2769512,40.4466262 42.2769512,34.1267445 L42.2769512,26.4077863 C42.2769512,20.1778893 40.3878896,15.0315063 36.6116155,10.9692535 C32.834725,6.90638441 28.0273253,4.87494986 22.1888,4.87494986 L22.1888,4.87494986 Z M22.1888,59.9024194 L4.99001928,59.9024194 L4.99001928,0.767088423 L22.1888,0.767088423 C29.4713942,0.767088423 35.4529089,3.17510262 40.1327276,7.98989835 C44.81193,12.8053104 47.1521476,18.9895987 47.1521476,26.5427633 L47.1521476,34.1267445 C47.1521476,41.7409261 44.81193,47.9400064 40.1327276,52.7252181 C35.4529089,57.5098135 29.4713942,59.9024194 22.1888,59.9024194 L22.1888,59.9024194 Z" id="Fill-1" fill="#1A1919" mask="url(#mask-2)"></path>
            </g>
        </g>
    </g>
</svg>